<svg width="52" height="52" viewBox="0 0 52 52" fill="none" xmlns="http://www.w3.org/2000/svg">
<rect width="52" height="52" rx="12" fill="#F9EAEA"/>
<path d="M33.3671 19.8417C32.9415 19.4159 32.4361 19.0781 31.8799 18.8476C31.3237 18.6172 30.7275 18.4985 30.1254 18.4985C29.5234 18.4985 28.9272 18.6172 28.371 18.8476C27.8147 19.0781 27.3094 19.4159 26.8838 19.8417L26.0004 20.7251L25.1171 19.8417C24.2573 18.982 23.0913 18.499 21.8754 18.499C20.6596 18.499 19.4935 18.982 18.6338 19.8417C17.774 20.7015 17.291 21.8675 17.291 23.0834C17.291 24.2993 17.774 25.4653 18.6338 26.3251L19.5171 27.2084L26.0004 33.6917L32.4838 27.2084L33.3671 26.3251C33.7929 25.8994 34.1307 25.3941 34.3612 24.8379C34.5917 24.2816 34.7103 23.6855 34.7103 23.0834C34.7103 22.4813 34.5917 21.8851 34.3612 21.3289C34.1307 20.7727 33.7929 20.2674 33.3671 19.8417Z" stroke="#F24040" stroke-width="2" stroke-linecap="round" stroke-linejoin="round"/>
</svg>
